<?xml version="1.0" encoding="UTF-8" standalone="no"?>
<!-- Created with Inkscape (http://www.inkscape.org/) -->

<svg
   xmlns:dc="http://purl.org/dc/elements/1.1/"
   xmlns:cc="http://creativecommons.org/ns#"
   xmlns:rdf="http://www.w3.org/1999/02/22-rdf-syntax-ns#"
   xmlns:svg="http://www.w3.org/2000/svg"
   xmlns="http://www.w3.org/2000/svg"
   xmlns:sodipodi="http://sodipodi.sourceforge.net/DTD/sodipodi-0.dtd"
   xmlns:inkscape="http://www.inkscape.org/namespaces/inkscape"
   width="512"
   height="512"
   id="svg2"
   version="1.1"
   sodipodi:docname="icon.svg"
   inkscape:version="0.48.4 r9939"
   inkscape:export-filename="/DATA2/AndroidSDK/Projects/NSPU.LessonSchedule/app/src/main/res/drawable-ldpi/ic_launcher.png"
   inkscape:export-xdpi="6.328125"
   inkscape:export-ydpi="6.328125">
  <defs
     id="defs4" />
  <sodipodi:namedview
     id="base"
     pagecolor="#ff00ff"
     bordercolor="#666666"
     borderopacity="1.0"
     inkscape:pageopacity="0.28627451"
     inkscape:pageshadow="2"
     inkscape:zoom="1.3264333"
     inkscape:cx="397.3473"
     inkscape:cy="235.06703"
     inkscape:document-units="px"
     inkscape:current-layer="layer1"
     showgrid="true"
     inkscape:window-width="1920"
     inkscape:window-height="1003"
     inkscape:window-x="0"
     inkscape:window-y="24"
     inkscape:window-maximized="1"
     inkscape:snap-bbox="true"
     fit-margin-top="0"
     fit-margin-left="0"
     fit-margin-right="0"
     fit-margin-bottom="0">
    <inkscape:grid
       type="xygrid"
       id="grid3780"
       empspacing="5"
       visible="true"
       enabled="true"
       snapvisiblegridlinesonly="true"
       originx="0px"
       originy="0px" />
  </sodipodi:namedview>
  <metadata
     id="metadata7">
    <rdf:RDF>
      <cc:Work
         rdf:about="">
        <dc:format>image/svg+xml</dc:format>
        <dc:type
           rdf:resource="http://purl.org/dc/dcmitype/StillImage" />
        <dc:title></dc:title>
      </cc:Work>
    </rdf:RDF>
  </metadata>
  <g
     inkscape:label="Layer 1"
     inkscape:groupmode="layer"
     id="layer1"
     transform="translate(0,-540.3622)">
    <path
       style="fill:#387091;fill-opacity:1;stroke:none"
       d="m 10.666667,551.02887 c 0,172.03733 0,342.07146 0,490.66663 170.392853,0 344.636903,0 490.666663,0 6.8e-4,-170.3925 -6.9e-4,-344.63677 0,-490.66663 -170.39285,0 -344.6369,0 -490.666663,0 z"
       id="rect2989"
       inkscape:connector-curvature="0"
       sodipodi:nodetypes="ccccc" />
    <rect
       style="fill:#719bb3;fill-opacity:1;stroke:none"
       id="rect2991"
       width="490.66666"
       height="388.44446"
       x="10.666667"
       y="602.14008" />
    <flowRoot
       xml:space="preserve"
       id="flowRoot3782"
       style="font-size:40px;font-style:normal;font-weight:normal;line-height:125%;letter-spacing:0px;word-spacing:0px;fill:#ffffff;fill-opacity:1;stroke:none;font-family:Sans"
       transform="translate(0,1004.3622)"><flowRegion
         id="flowRegion3784"><rect
           id="rect3786"
           width="58.666664"
           height="81.833336"
           x="-68.666664"
           y="-23.833334"
           style="fill:#ffffff" /></flowRegion><flowPara
         id="flowPara3788">РАСПНГПУ</flowPara><flowPara
         id="flowPara3790" /></flowRoot>    <flowRoot
       xml:space="preserve"
       id="flowRoot3792"
       style="font-size:40px;font-style:normal;font-weight:normal;line-height:125%;letter-spacing:0px;word-spacing:0px;fill:#000000;fill-opacity:1;stroke:none;font-family:Sans"
       transform="translate(0,1004.3622)"><flowRegion
         id="flowRegion3794"><rect
           id="rect3796"
           width="48.833332"
           height="70.166664"
           x="-65.166664"
           y="4.6666665" /></flowRegion><flowPara
         id="flowPara3798">РАСПНГПУddd</flowPara><flowPara
         id="flowPara3800" /></flowRoot>    <flowRoot
       xml:space="preserve"
       id="flowRoot3802"
       style="font-size:16px;font-style:normal;font-weight:normal;line-height:125%;letter-spacing:0px;word-spacing:0px;fill:#ffffff;fill-opacity:1;stroke:none;font-family:Sans"
       transform="matrix(10.222222,0,0,10.222222,-42.154116,483.78561)"><flowRegion
         id="flowRegion3804"><rect
           id="rect3806"
           width="44.833332"
           height="45"
           x="6.1666665"
           y="10.5"
           style="fill:#ffffff;fill-opacity:1" /></flowRegion><flowPara
         id="flowPara3808"
         style="font-style:normal;font-variant:normal;font-weight:bold;font-stretch:normal;text-align:center;text-anchor:middle;fill:#ffffff;fill-opacity:1;font-family:PT Sans;-inkscape-font-specification:PT Sans Bold">РАСП</flowPara><flowPara
         id="flowPara3810"
         style="font-style:normal;font-variant:normal;font-weight:bold;font-stretch:normal;text-align:center;text-anchor:middle;fill:#ffffff;fill-opacity:1;font-family:PT Sans;-inkscape-font-specification:PT Sans Bold">НГПУ</flowPara></flowRoot>    <rect
       style="fill:#000000;fill-opacity:0.17692309;stroke:none"
       id="rect3768"
       width="48"
       height="48"
       x="-52"
       y="975.36218" />
    <path
       style="fill:#000000;fill-opacity:0.17692309;stroke:none"
       d="m -60,40 0,3 0,0.8125 0,2.1875 c 0,1.662 1.338,3 3,3 l 2.1875,0 0.8125,0 3,0 c -0.831,0 -1.5827,-0.3327 -2.125,-0.875 C -53.6672,47.5828 -54,46.831 -54,46 -54,45.169 -54.33275,44.4173 -54.875,43.875 -55.41725,43.3328 -56.169,43 -57,43 -57.831,43 -58.58275,42.6673 -59.125,42.125 -59.66725,41.5828 -60,40.831 -60,40 z"
       transform="translate(0,1004.3622)"
       id="path3825"
       inkscape:connector-curvature="0" />
    <path
       style="fill:#000000;fill-opacity:0.17692309;stroke:none"
       d="m -48,976.3622 c -1.662,0 -3,1.338 -3,3 l 0,34 c 0,0.831 0.33275,1.5828 0.875,2.125 0.54225,0.5423 1.294,0.875 2.125,0.875 0.831,0 1.58275,0.3328 2.125,0.875 0.54225,0.5423 0.875,1.294 0.875,2.125 0,0.831 0.3328,1.5828 0.875,2.125 0.5423,0.5423 1.294,0.875 2.125,0.875 l 34,0 c 1.662,0 3,-1.338 3,-3 l 0,-40 c 0,-1.662 -1.338,-3 -3,-3 l -40,0 z"
       id="rect3770"
       inkscape:connector-curvature="0" />
    <path
       style="fill:#000000;fill-opacity:0.17692309;stroke:none"
       d="m -7,1035.3622 c -0.831,0 -1.58275,0.3328 -2.125,0.875 -0.54225,0.5423 -0.875,1.294 -0.875,2.125 l 0,1 c 0,0.831 0.33275,1.5828 0.875,2.125 0.54225,0.5423 1.294,0.875 2.125,0.875 l 1,0 c 0.831,0 1.58275,-0.3327 2.125,-0.875 0.54225,-0.5422 0.875,-1.294 0.875,-2.125 l 0,-1 c 0,-0.831 -0.33275,-1.5827 -0.875,-2.125 -0.54225,-0.5422 -1.294,-0.875 -2.125,-0.875 l -1,0 z"
       id="path3805"
       inkscape:connector-curvature="0" />
    <path
       style="fill:#ffffff;fill-opacity:1;stroke:none"
       d="m 0,540.3622 0,512 512,0 0,-512 -512,0 z m 42.666667,10.66667 426.666663,0 c 17.728,0 32,14.272 32,32 l 0,426.66663 c 0,17.728 -14.272,32 -32,32 l -362.66666,0 c -8.864003,0 -16.882137,-3.5488 -22.66667,-9.3333 -5.783467,-5.7835 -9.333333,-13.8027 -9.333333,-22.6667 0,-8.864 -3.549334,-16.8821 -9.333334,-22.66663 -5.784,-5.78347 -13.802666,-9.33334 -22.666666,-9.33334 -8.864,0 -16.882667,-3.5488 -22.666667,-9.33333 -5.784,-5.78347 -9.333333,-13.80267 -9.333333,-22.66667 l 0,-362.66666 c 0,-17.728 14.272,-32 32,-32 z"
       id="rect3768-3"
       inkscape:connector-curvature="0" />
    <rect
       style="fill:#000000;fill-opacity:0.17692309;stroke:none"
       id="rect3852"
       width="12"
       height="12"
       x="-30"
       y="1027.3622"
       rx="5"
       ry="5" />
    <text
       xml:space="preserve"
       style="font-size:21.33333397px;font-style:normal;font-variant:normal;font-weight:bold;font-stretch:normal;text-align:center;line-height:85.00000238%;writing-mode:lr-tb;text-anchor:middle;fill:#000000;fill-opacity:1;stroke:none;font-family:PT Sans;-inkscape-font-specification:PT Sans Bold"
       x="37.947498"
       y="1010.1062"
       id="text3856"
       sodipodi:linespacing="85.000002%"><tspan
         sodipodi:role="line"
         id="tspan3858"
         x="37.947498"
         y="1010.1062"
         style="font-size:37.33333206px;line-height:85.00000238%;fill:#000000;fill-opacity:1">Sib</tspan><tspan
         sodipodi:role="line"
         x="37.947498"
         y="1041.8395"
         id="tspan3860"
         style="font-size:37.33333206px;line-height:85.00000238%;fill:#000000;fill-opacity:1">Dev</tspan></text>
  </g>
</svg>
